<svg width="48" height="48" viewBox="0 0 48 48" fill="none" xmlns="http://www.w3.org/2000/svg">
<path d="M44 11.6004C42.4967 12.2526 40.9069 12.6837 39.28 12.8804C40.9963 11.8551 42.2825 10.242 42.9 8.34042C41.2871 9.30055 39.5215 9.97701 37.68 10.3404C36.4491 9.00556 34.8099 8.11701 33.0196 7.81412C31.2293 7.51123 29.3891 7.81114 27.7876 8.6668C26.1861 9.52246 24.9139 10.8855 24.1705 12.5421C23.4271 14.1987 23.2546 16.0552 23.68 17.8204C20.4189 17.6555 17.2289 16.8063 14.3173 15.3281C11.4057 13.85 8.83769 11.7758 6.78 9.24042C6.05828 10.5008 5.67904 11.9281 5.68 13.3804C5.67744 14.7292 6.00843 16.0577 6.64351 17.2475C7.27859 18.4374 8.19804 19.4518 9.32 20.2004C8.01595 20.1649 6.73977 19.815 5.6 19.1804V19.2804C5.60977 21.1702 6.27199 22.9986 7.47463 24.4564C8.67727 25.9141 10.3465 26.9117 12.2 27.2804C11.4865 27.4976 10.7457 27.612 10 27.6204C9.48378 27.6144 8.96884 27.5676 8.46 27.4804C8.98782 29.106 10.0092 30.5267 11.3821 31.5447C12.7551 32.5628 14.4112 33.1275 16.12 33.1604C13.2344 35.431 9.67177 36.6701 6 36.6804C5.33147 36.6826 4.66347 36.6425 4 36.5604C7.74886 38.9809 12.1176 40.2659 16.58 40.2604C19.6594 40.2924 22.7143 39.7105 25.5662 38.5486C28.4182 37.3867 31.01 35.6682 33.1904 33.4934C35.3708 31.3186 37.0959 28.7312 38.2651 25.8822C39.4343 23.0333 40.0241 19.9799 40 16.9004V15.8404C41.5694 14.67 42.923 13.2353 44 11.6004Z" fill="current"/>
</svg>
