<svg width="32" height="32" viewBox="0 0 18 18" fill="none" xmlns="http://www.w3.org/2000/svg">
<path d="M10.8799 8.99972L16.6133 3.27972C16.8643 3.02865 17.0054 2.68812 17.0054 2.33305C17.0054 1.97798 16.8643 1.63746 16.6133 1.38638C16.3622 1.13531 16.0217 0.994263 15.6666 0.994263C15.3115 0.994263 14.971 1.13531 14.7199 1.38638L8.99992 7.11972L3.27992 1.38638C3.02885 1.13531 2.68832 0.994263 2.33325 0.994263C1.97818 0.994263 1.63766 1.13531 1.38659 1.38638C1.13551 1.63746 0.994463 1.97798 0.994463 2.33305C0.994463 2.68812 1.13551 3.02865 1.38659 3.27972L7.11992 8.99972L1.38659 14.7197C1.26161 14.8437 1.16242 14.9911 1.09473 15.1536C1.02704 15.3161 0.992188 15.4904 0.992188 15.6664C0.992188 15.8424 1.02704 16.0167 1.09473 16.1792C1.16242 16.3416 1.26161 16.4891 1.38659 16.613C1.51054 16.738 1.658 16.8372 1.82048 16.9049C1.98296 16.9726 2.15724 17.0074 2.33325 17.0074C2.50927 17.0074 2.68354 16.9726 2.84602 16.9049C3.0085 16.8372 3.15597 16.738 3.27992 16.613L8.99992 10.8797L14.7199 16.613C14.8439 16.738 14.9913 16.8372 15.1538 16.9049C15.3163 16.9726 15.4906 17.0074 15.6666 17.0074C15.8426 17.0074 16.0169 16.9726 16.1794 16.9049C16.3418 16.8372 16.4893 16.738 16.6133 16.613C16.7382 16.4891 16.8374 16.3416 16.9051 16.1792C16.9728 16.0167 17.0077 15.8424 17.0077 15.6664C17.0077 15.4904 16.9728 15.3161 16.9051 15.1536C16.8374 14.9911 16.7382 14.8437 16.6133 14.7197L10.8799 8.99972Z" fill="current"/>
</svg>
