<svg width="92" height="48" viewBox="0 0 92 48" fill="none" xmlns="http://www.w3.org/2000/svg">
<path d="M13.6583 14.3437C11.4368 13.6588 5.9489 12.131 7.91577 7.8416C9.95728 3.39418 16.8194 4.67177 20.8497 7.5211L23.8922 3.05174C13.3861 -3.70938 3.16543 4.43469 3.89423 12.1529C4.53522 18.9448 10.1724 20.1916 15.0369 22.1321C21.2141 24.5951 20.8848 28.6079 20.0507 30.1182C18.9487 32.1026 16.0774 33.2616 11.0197 31.7689C6.91039 30.5528 5.03132 28.1469 5.03132 28.1469L1.92736 32.8533C9.68508 41.994 23.1107 36.7212 24.4717 27.1986C25.8371 17.6759 15.8798 15.0286 13.6583 14.3437Z" fill="#231F20"/>
<path d="M45.3478 31.1323C44.6673 30.6933 44.7287 29.8591 44.7287 29.8591L44.7068 11.5734C32.5851 6.9328 27.5142 19.4628 27.5801 26.1361C27.6459 32.8665 30.4689 35.4568 32.9495 35.4524C36.3256 35.4524 39.4472 32.2167 39.4472 32.2167C39.4472 33.4285 39.2628 35.6017 41.4974 35.6017C43.7234 35.6017 45.7561 34.2451 47.4903 32.7304V31.027C47.4903 31.027 47.4639 30.7021 47.1742 30.8513C46.9898 30.9435 46.0414 31.5801 45.3522 31.1367L45.3478 31.1323ZM39.1662 30.263C38.8237 30.7021 38.3232 31.3562 37.2125 31.8392C36.0622 32.3441 34.2622 31.826 33.6036 29.6967C32.9582 27.5674 32.9451 24.1429 33.6607 20.7975C34.3763 17.4564 35.97 14.4491 37.5154 13.1583C37.5154 13.1583 39.4472 11.4197 39.4516 13.3602V14.032L39.4735 29.1611C39.4735 29.1611 39.5086 29.8108 39.1706 30.2586L39.1662 30.263Z" fill="#231F20"/>
<path d="M89.8263 31.0796C89.1458 30.6362 89.2028 29.8064 89.2028 29.8064L89.1809 11.5207C77.0592 6.88011 71.9927 19.4101 72.0542 26.0834C72.12 32.8138 74.943 35.4041 77.4236 35.3997C80.7997 35.3997 83.9213 32.1641 83.9213 32.1641C83.9213 33.3758 83.7325 35.549 85.9715 35.549C88.2018 35.549 90.2302 34.1924 91.9688 32.6777V30.9743C91.9688 30.9743 91.9424 30.6494 91.6526 30.7987C91.4683 30.8909 90.5199 31.5275 89.8307 31.084L89.8263 31.0796ZM83.6491 30.2104C83.3066 30.6494 82.8061 31.3036 81.6954 31.7865C80.5451 32.2914 78.7407 31.7733 78.0865 29.644C77.4411 27.5147 77.428 24.0902 78.1436 20.7448C78.8592 17.3994 80.4529 14.392 82.0027 13.1056C82.0027 13.1056 83.9344 11.367 83.9344 13.3076V13.9793L83.9564 29.1084C83.9564 29.1084 83.9915 29.7582 83.6535 30.2104H83.6491Z" fill="#231F20"/>
<path d="M55.4631 2.74002L55.4982 29.846C55.4982 29.846 55.4412 30.6801 56.126 31.1192C56.1612 31.1411 56.2007 31.1587 56.2358 31.1762C56.2797 31.1938 56.3192 31.2201 56.3631 31.2333C56.3631 31.2333 56.3675 31.2333 56.3719 31.2333C57.0173 31.4045 57.7636 30.9128 57.9217 30.8294C58.2115 30.6801 58.2334 31.005 58.2334 31.005V32.7085C58.2334 32.7085 58.2115 32.7304 58.1983 32.7392V32.7524C56.4773 34.2495 54.4709 35.5753 52.2582 35.5797H52.2362C50.0191 35.571 50.2035 33.4065 50.2035 32.1948C50.2035 32.1948 50.2035 30.7767 50.1991 28.6342L50.1728 6.59035C50.1728 5.36106 50.9016 4.8869 50.9016 4.8869C52.3943 4.03517 54.3041 2.95954 55.0899 2.51612C55.0899 2.51612 55.2172 2.44148 55.3314 2.49856C55.4499 2.55563 55.4543 2.73124 55.4543 2.73124L55.4631 2.74002Z" fill="#231F20"/>
<path d="M67.0273 5.60691L67.036 10.8446H71.5537C71.5537 10.8446 71.7644 10.8139 71.782 10.9719C71.7952 11.0948 71.6854 11.1914 71.6854 11.1914L70.1532 12.6227C70.0785 12.6973 69.9512 12.7632 69.8766 12.7632H67.0404L67.0624 29.8284C67.0624 29.8284 66.9965 30.6582 67.6814 31.1016C68.3707 31.545 69.319 30.9084 69.5034 30.8162C69.7932 30.667 69.8151 30.9918 69.8151 30.9918V32.6953C68.6648 33.7007 67.3829 34.6358 65.9999 35.1495C65.9911 35.1495 65.9867 35.1539 65.978 35.1583C65.7584 35.2373 65.5345 35.3075 65.3106 35.369C65.2887 35.3734 65.2667 35.3822 65.2492 35.3866C65.0253 35.4392 64.8057 35.4832 64.5818 35.5139C64.5599 35.5139 64.5423 35.5183 64.5204 35.5227C64.2921 35.549 64.0638 35.571 63.8311 35.571H63.8223C61.592 35.571 61.7764 33.4021 61.772 32.186L61.7457 12.7719V10.8446L61.7413 8.92162C61.7413 8.92162 61.7413 8.35966 62.1803 8.07428C63.0233 7.5211 65.8111 5.94936 66.7331 5.42691C66.7331 5.42691 66.856 5.34789 66.9438 5.40496C67.0624 5.48399 67.0316 5.59813 67.0316 5.59813L67.0273 5.60691Z" fill="#231F20"/>
<path d="M12.7934 13.8125C10.5719 13.1276 5.08401 11.5997 7.05088 7.31036C9.09238 2.86295 15.6647 4.33811 19.6336 7.51671L23.0273 2.52051C12.5256 -4.24061 2.30054 3.90346 3.02933 11.6217C3.67032 18.4135 9.30751 19.6604 14.172 21.6009C20.3492 24.0639 20.0199 28.0767 19.1858 29.5869C18.0838 31.5714 15.2125 32.7304 10.1548 31.2377C6.04549 30.0216 3.63081 26.8078 3.63081 26.8078L0.557573 31.5231C8.3153 40.6637 22.2414 36.19 23.6068 26.6674C24.9722 17.1447 15.0149 14.4973 12.7934 13.8125Z" fill="url(#paint0_linear_810_323)"/>
<path d="M44.4873 30.2016C43.8068 29.7625 43.8682 28.9284 43.8682 28.9284L43.8463 11.0378C31.7246 6.39717 26.6537 18.9272 26.7196 25.6005C26.7854 32.3309 29.6084 34.9212 32.089 34.9168C35.4651 34.9168 38.5867 31.6811 38.5867 31.6811C38.5867 32.8929 38.4023 35.0661 40.6369 35.0661C42.8628 35.0661 44.8956 33.7095 46.6298 32.1948V30.0918C46.6298 30.0918 46.6034 29.7669 46.3136 29.9162C46.1293 30.0084 45.1809 30.645 44.4917 30.2016H44.4873ZM38.3057 29.7274C37.9632 30.1665 37.4627 30.8206 36.352 31.3036C35.2017 31.8084 33.4017 31.2904 32.7431 29.1611C32.0977 27.0318 32.0846 23.6073 32.8002 20.2619C33.5158 16.9208 35.1095 13.9134 36.6549 12.6227C36.6549 12.6227 38.5867 10.8841 38.591 12.8246V13.4963L38.613 28.6254C38.613 28.6254 38.6481 29.2752 38.3101 29.723L38.3057 29.7274Z" fill="url(#paint1_linear_810_323)"/>
<path d="M88.9614 30.1489C88.2809 29.7055 88.3379 28.8757 88.3379 28.8757L88.316 10.9851C76.1943 6.34449 71.1278 18.8745 71.1893 25.5478C71.2551 32.2782 74.0781 34.8685 76.5587 34.8641C79.9348 34.8641 83.0564 31.6284 83.0564 31.6284C83.0564 32.8402 82.8676 35.0134 85.1067 35.0134C87.3369 35.0134 89.3653 33.6568 91.1038 32.1421V30.0391C91.1038 30.0391 91.0775 29.7142 90.7877 29.8635C90.6033 29.9557 89.655 30.5923 88.9658 30.1489H88.9614ZM82.7842 29.6747C82.4417 30.1138 81.9412 30.7679 80.8305 31.2509C79.6802 31.7558 77.8758 31.2377 77.2216 29.1084C76.5762 26.9791 76.5631 23.5546 77.2787 20.2092C77.9943 16.8637 79.588 13.8564 81.1378 12.57C81.1378 12.57 83.0695 10.8314 83.0695 12.7719V13.4437L83.0915 28.5728C83.0915 28.5728 83.1266 29.2225 82.7886 29.6747H82.7842Z" fill="url(#paint2_linear_810_323)"/>
<path d="M54.6026 1.61171L54.6377 28.9152C54.6377 28.9152 54.5806 30.1445 55.2655 30.5879C55.3007 30.6099 55.3402 30.6274 55.3753 30.645C55.4192 30.6626 55.5904 30.6274 55.6343 30.6362L55.766 30.5045C56.3148 30.4782 56.9031 29.9821 57.0612 29.903C57.351 29.7538 57.3729 30.0786 57.3729 30.0786V32.1816C57.3729 32.1816 57.351 32.2036 57.3378 32.2124V32.2255C55.6168 33.7226 53.6104 35.0485 51.3977 35.0529H51.3757C49.1586 35.0441 49.343 32.8797 49.343 31.6679C49.343 31.6679 49.343 30.2499 49.3386 28.1074L49.3122 6.06351C49.3122 4.83422 50.041 3.76297 50.041 3.76297C51.5338 2.91125 53.4436 1.83562 54.2294 1.39219C54.2294 1.39219 54.3567 1.31756 54.4709 1.37463C54.5894 1.4317 54.5938 1.60732 54.5938 1.60732L54.6026 1.61171Z" fill="url(#paint3_linear_810_323)"/>
<path d="M66.1667 4.4786L66.1755 10.3134H70.6932C70.6932 10.3134 70.9039 10.2826 70.9215 10.4407C70.9346 10.5636 70.8249 10.6602 70.8249 10.6602L69.2927 12.0914C69.218 12.1661 69.0907 12.2319 69.0161 12.2319H66.1799L66.2019 28.8976C66.2019 28.8976 66.136 29.9294 66.8209 30.3684C67.5102 30.8118 68.4585 29.7757 68.6429 29.6835C68.9327 29.5342 68.9546 29.8591 68.9546 29.8591V32.1597C67.8043 33.1651 66.5224 34.1002 65.1394 34.6139C65.1306 34.6139 65.1262 34.6183 65.1175 34.6226C64.8979 34.7017 64.674 34.7719 64.4501 34.8334C64.4282 34.8378 64.4062 34.8465 64.3887 34.8509C64.1648 34.9036 63.9452 34.9475 63.7213 34.9783C63.6994 34.9783 63.6818 34.9827 63.6599 34.987C63.4316 35.0134 63.2033 35.0353 62.9706 35.0353H62.9618C60.7315 35.0353 60.9159 32.8665 60.9115 31.6504L60.8852 12.2363V10.309L60.8808 8.386C60.8808 8.386 60.8808 7.22695 61.3198 6.94158C62.1628 6.38839 64.9506 4.81665 65.8726 4.2942C65.8726 4.2942 65.9955 4.21518 66.0833 4.27225C66.2019 4.35128 66.1711 4.46543 66.1711 4.46543L66.1667 4.4786Z" fill="url(#paint4_linear_810_323)"/>
<path d="M11.731 13.8125C9.50947 13.1276 4.02155 11.5997 5.98842 7.31036C8.02992 2.86295 14.892 4.14054 18.9223 6.98987L21.9648 2.52051C11.4632 -4.24061 1.23807 3.90346 1.96687 11.6217C2.60786 18.4135 8.24505 19.6604 13.1095 21.6009C19.2867 24.0639 18.9575 28.0767 18.1233 29.5869C17.0213 31.5714 14.1501 32.7304 9.09238 31.2377C4.98303 30.0216 3.10397 27.6157 3.10397 27.6157L0 32.3221C7.75772 41.4628 21.1834 36.19 22.5444 26.6674C23.9098 17.1447 13.9525 14.4973 11.731 13.8125Z" fill="white"/>
<path d="M43.4248 30.6011C42.7443 30.1621 42.8058 29.3279 42.8058 29.3279L42.7838 11.0422C30.6621 6.40157 25.5913 18.9316 25.6571 25.6049C25.723 32.3353 28.546 34.9256 31.0265 34.9212C34.4027 34.9212 37.5242 31.6855 37.5242 31.6855C37.5242 32.8972 37.3398 35.0705 39.5745 35.0705C41.8004 35.0705 43.8331 33.7138 45.5673 32.1992V30.4957C45.5673 30.4957 45.5409 30.1708 45.2512 30.3201C45.0668 30.4123 44.1185 31.0489 43.4292 30.6055L43.4248 30.6011ZM37.2432 29.7318C36.9008 30.1708 36.4003 30.825 35.2895 31.3079C34.1392 31.8128 32.3392 31.2948 31.6807 29.1655C31.0353 27.0361 31.0221 23.6117 31.7377 20.2662C32.4534 16.9252 34.0471 13.9178 35.5924 12.6271C35.5924 12.6271 37.5242 10.8885 37.5286 12.829V13.5007L37.5505 28.6298C37.5505 28.6298 37.5857 29.2796 37.2476 29.7274L37.2432 29.7318Z" fill="white"/>
<path d="M87.9033 30.5484C87.2228 30.105 87.2799 29.2752 87.2799 29.2752L87.2579 10.9895C75.1362 6.34888 70.0698 18.8789 70.1312 25.5522C70.1971 32.2826 73.0201 34.8729 75.5006 34.8685C78.8768 34.8685 81.9983 31.6328 81.9983 31.6328C81.9983 32.8446 81.8095 35.0178 84.0486 35.0178C86.2789 35.0178 88.3072 33.6612 90.0458 32.1465V30.443C90.0458 30.443 90.0194 30.1182 89.7297 30.2674C89.5453 30.3596 88.597 30.9962 87.9077 30.5528L87.9033 30.5484ZM81.7261 29.6791C81.3836 30.1182 80.8831 30.7723 79.7724 31.2553C78.6221 31.7601 76.8177 31.2421 76.1635 29.1128C75.5182 26.9835 75.505 23.559 76.2206 20.2136C76.9362 16.8681 78.5299 13.8607 80.0797 12.5744C80.0797 12.5744 82.0115 10.8358 82.0115 12.7763V13.4481L82.0334 28.5772C82.0334 28.5772 82.0685 29.2269 81.7305 29.6791H81.7261Z" fill="white"/>
<path d="M53.5401 2.20879L53.5753 29.3147C53.5753 29.3147 53.5182 30.1489 54.2031 30.5879C54.2382 30.6099 54.2777 30.6274 54.3128 30.645C54.3567 30.6626 54.3963 30.6889 54.4402 30.7021C54.4402 30.7021 54.4445 30.7021 54.4489 30.7021C55.0943 30.8733 55.8407 30.3816 55.9987 30.2982C56.2885 30.1489 56.3104 30.4738 56.3104 30.4738V32.1772C56.3104 32.1772 56.2885 32.1992 56.2753 32.208V32.2211C54.5543 33.7182 52.5479 35.0441 50.3352 35.0485H50.3132C48.0961 35.0397 48.2805 32.8753 48.2805 31.6636C48.2805 31.6636 48.2805 30.2455 48.2761 28.103L48.2498 6.05912C48.2498 4.82982 48.9786 4.35567 48.9786 4.35567C50.4713 3.50394 52.3811 2.42831 53.167 1.98489C53.167 1.98489 53.2943 1.91025 53.4084 1.96733C53.527 2.0244 53.5314 2.20001 53.5314 2.20001L53.5401 2.20879Z" fill="white"/>
<path d="M65.1043 5.07568L65.1131 10.3134H69.6307C69.6307 10.3134 69.8415 10.2826 69.859 10.4407C69.8722 10.5636 69.7624 10.6602 69.7624 10.6602L68.2302 12.0914C68.1556 12.1661 68.0282 12.2319 67.9536 12.2319H65.1175L65.1394 29.2972C65.1394 29.2972 65.0735 30.1269 65.7584 30.5704C66.4477 31.0138 67.396 30.3772 67.5804 30.285C67.8702 30.1357 67.8921 30.4606 67.8921 30.4606V32.1641C66.7419 33.1694 65.4599 34.1046 64.0769 34.6183C64.0682 34.6183 64.0638 34.6226 64.055 34.627C63.8355 34.7061 63.6116 34.7763 63.3877 34.8378C63.3657 34.8422 63.3438 34.8509 63.3262 34.8553C63.1023 34.908 62.8828 34.9519 62.6589 34.9827C62.6369 34.9827 62.6194 34.987 62.5974 34.9914C62.3691 35.0178 62.1408 35.0397 61.9081 35.0397H61.8993C59.6691 35.0397 59.8534 32.8709 59.8491 31.6548L59.8227 12.2407V10.3134L59.8183 8.39039C59.8183 8.39039 59.8183 7.82842 60.2574 7.54305C61.1003 6.98987 63.8882 5.41813 64.8101 4.89568C64.8101 4.89568 64.9331 4.81665 65.0209 4.87373C65.1394 4.95275 65.1087 5.0669 65.1087 5.0669L65.1043 5.07568Z" fill="white"/>
<path d="M78.7626 45.1068V46.3975L88.9789 45.7521L78.7626 45.1068Z" fill="url(#paint5_linear_810_323)"/>
<path d="M12.3412 45.1068V46.3975L2.12492 45.7521L12.3412 45.1068Z" fill="url(#paint6_linear_810_323)"/>
<path d="M23.2556 46.2043L24.1293 47.2185L24.0459 47.2536C24.0459 47.2536 22.281 48 20.7531 48C18.0838 48 16.8852 46.8058 16.8852 45.6204C16.8852 44.435 18.0794 43.2365 20.7487 43.2365C21.3897 43.2365 22.0351 43.3067 22.7244 43.4516C23.2117 43.557 23.7781 43.7897 23.8 43.7984L23.8834 43.8336L22.9878 44.8433L22.7858 44.7424V44.7029C22.7858 44.7029 22.7771 44.659 22.7683 44.6326V44.6107C22.7112 44.4219 21.5741 44.1102 20.7487 44.1102C19.5809 44.1102 18.3209 44.5755 18.3209 45.5941C18.3209 46.6127 19.5809 47.078 20.7487 47.078C21.9166 47.078 23.0449 46.6697 23.0449 46.4546C23.0449 46.4414 23.0317 46.4151 23.0141 46.3975L22.9483 46.3273L23.2468 46.2043H23.2556ZM41.8004 47.6532H41.8662V47.9385H40.1189L40.1013 47.921L38.3145 46.099H36.7076V47.9429H34.8768V47.6576H34.9427C35.07 47.6576 35.2193 47.64 35.2193 47.5697V43.6623C35.2193 43.5877 35.0656 43.5745 34.9383 43.5745H34.8724V43.2892H38.9994C40.716 43.2892 41.5853 43.7589 41.5853 44.6941C41.5853 45.4009 41.0365 45.8443 39.9477 46.0156L41.4404 47.5566C41.5238 47.6444 41.6599 47.6576 41.796 47.6576L41.8004 47.6532ZM38.6964 44.1541H36.7076V45.2956H38.6964C40.1013 45.2956 40.1013 44.8653 40.1013 44.7204C40.1013 44.5755 40.1013 44.1497 38.692 44.1497L38.6964 44.1541ZM32.3743 46.8629C32.3743 46.9551 32.2338 47.021 32.0363 47.021H28.1333V45.9673H31.1758V45.0936H28.1333V44.1585H31.9177C32.1724 44.1585 32.3041 44.198 32.3041 44.2814V44.3472H32.6509V43.2848H26.4386V43.5701H26.5045C26.5659 43.5701 26.6537 43.5921 26.6537 43.658V47.5654C26.6537 47.6312 26.5659 47.6532 26.5088 47.6532H26.443V47.9385H32.7256V46.7883H32.3787V46.8541L32.3743 46.8629ZM46.9722 46.4897L44.9263 43.3067L44.9087 43.276H43.1526V43.5526L43.2053 43.5614C43.4687 43.6141 43.5741 43.6623 43.6399 43.7545L45.778 47.1175C45.8219 47.1834 45.8614 47.2449 45.901 47.3019C45.98 47.4249 46.0722 47.561 46.0766 47.5917C46.0766 47.6137 46.0678 47.64 46.0239 47.6488L45.9712 47.6576V47.9298H47.9205V47.6707L47.8854 47.6532C47.8283 47.618 47.8151 47.6093 47.8151 47.5961C47.8195 47.5654 47.8898 47.4644 47.9556 47.3634C47.9864 47.3151 48.0215 47.2624 48.0566 47.2053L50.1552 43.8599L50.1815 43.8204C50.2518 43.7106 50.3484 43.5614 50.5986 43.5614H50.6645V43.276H49.0269L46.9766 46.4941L46.9722 46.4897ZM58.3563 46.8453C58.3563 46.9375 58.2158 47.0034 58.0183 47.0034H54.1153V45.9497H57.1578V45.076H54.1153V44.1409H57.8997C58.1544 44.1409 58.2861 44.1804 58.2861 44.2638V44.3297H58.6329V43.2672H52.4206V43.5526H52.4865C52.5479 43.5526 52.6357 43.5745 52.6357 43.6404V47.5478C52.6357 47.6137 52.5479 47.6356 52.4908 47.6356H52.425V47.921H58.7076V46.7707H58.3607V46.8366L58.3563 46.8453ZM60.5252 44.378H60.872V44.3121C60.872 44.2682 60.872 44.1365 61.1618 44.1365H64.2262L60.5164 47.5697L60.4944 47.5873V47.921H66.7068V46.8058H66.3599V46.8717C66.3599 46.9288 66.3599 46.9946 66.0921 46.9946H63.0277L66.6804 43.6141L66.7024 43.5965V43.2628H60.5252V44.378ZM75.4918 47.6444V47.9166H73.7401L72.9454 46.797H70.118L69.3278 47.9166H68.0107V47.6356H68.0722C68.239 47.618 68.3312 47.4995 68.4365 47.3327L70.6581 43.9433C70.7415 43.8336 70.8337 43.7062 70.8337 43.6492C70.8337 43.5789 70.6888 43.5526 70.6273 43.5438L70.5703 43.535V43.2584H72.7083V43.535L72.6513 43.5438C72.48 43.5701 72.4581 43.6141 72.4581 43.6492C72.4581 43.7106 72.5064 43.7853 72.6118 43.9302L75.0835 47.4336C75.1538 47.5346 75.2635 47.5785 75.4391 47.6312L75.4874 47.6444H75.4918ZM72.4317 46.0287L71.5493 44.6151L70.5615 46.0331H72.4317V46.0287Z" fill="#231F20"/>
<path d="M22.8561 46.0024L23.7298 47.0166L23.6463 47.0517C23.6463 47.0517 21.8814 47.798 20.3536 47.798C17.6843 47.798 16.4857 46.6039 16.4857 45.4185C16.4857 44.2331 17.6799 43.0345 20.3492 43.0345C20.9902 43.0345 21.6356 43.1048 22.3249 43.2497C22.8122 43.355 23.3785 43.5877 23.4005 43.5965L23.4839 43.6316L22.5883 44.6414L22.3863 44.5404V44.5009C22.3863 44.5009 22.3775 44.457 22.3688 44.4307V44.4087C22.3117 44.2199 21.1746 43.9082 20.3492 43.9082C19.1814 43.9082 17.9213 44.3736 17.9213 45.3921C17.9213 46.4107 19.1814 46.8761 20.3492 46.8761C21.517 46.8761 22.6454 46.4678 22.6454 46.2526C22.6454 46.2395 22.6322 46.2131 22.6146 46.1956L22.5488 46.1253L22.8473 46.0024H22.8561ZM41.4009 47.4512H41.4667V47.7366H39.7194L39.7018 47.719L37.9149 45.897H36.3081V47.741H34.4773V47.4556H34.5432C34.6705 47.4556 34.8197 47.438 34.8197 47.3678V43.4604C34.8197 43.3858 34.6661 43.3726 34.5388 43.3726H34.4729V43.0872H38.5998C40.3164 43.0872 41.1857 43.557 41.1857 44.4921C41.1857 45.199 40.6369 45.6424 39.5481 45.8136L41.0409 47.3546C41.1243 47.4424 41.2604 47.4556 41.3965 47.4556L41.4009 47.4512ZM38.2969 43.9521H36.3081V45.0936H38.2969C39.7018 45.0936 39.7018 44.6633 39.7018 44.5185C39.7018 44.3736 39.7018 43.9477 38.2925 43.9477L38.2969 43.9521ZM31.9748 46.6609C31.9748 46.7531 31.8343 46.819 31.6368 46.819H27.7337V45.7653H30.7763V44.8916H27.7337V43.9565H31.5182C31.7729 43.9565 31.9046 43.996 31.9046 44.0794V44.1453H32.2514V43.0828H26.0391V43.3682H26.1049C26.1664 43.3682 26.2542 43.3901 26.2542 43.456V47.3634C26.2542 47.4293 26.1664 47.4512 26.1093 47.4512H26.0435V47.7366H32.326V46.5863H31.9792V46.6522L31.9748 46.6609ZM46.5727 46.2878L44.5268 43.1048L44.5092 43.074H42.7531V43.3506L42.8058 43.3594C43.0692 43.4121 43.1746 43.4604 43.2404 43.5526L45.3785 46.9156C45.4224 46.9814 45.4619 47.0429 45.5014 47.1C45.5805 47.2229 45.6727 47.359 45.6771 47.3897C45.6771 47.4117 45.6683 47.438 45.6244 47.4468L45.5717 47.4556V47.7278H47.521V47.4688L47.4859 47.4512C47.4288 47.4161 47.4156 47.4073 47.4156 47.3941C47.42 47.3634 47.4903 47.2624 47.5561 47.1614C47.5868 47.1132 47.622 47.0605 47.6571 47.0034L49.7557 43.658L49.782 43.6184C49.8523 43.5087 49.9488 43.3594 50.1991 43.3594H50.265V43.074H48.6274L46.5771 46.2922L46.5727 46.2878ZM57.9568 46.6434C57.9568 46.7356 57.8163 46.8014 57.6188 46.8014H53.7158V45.7478H56.7583V44.8741H53.7158V43.9389H57.5002C57.7549 43.9389 57.8866 43.9785 57.8866 44.0619V44.1277H58.2334V43.0653H52.0211V43.3506H52.0869C52.1484 43.3506 52.2362 43.3726 52.2362 43.4384V47.3458C52.2362 47.4117 52.1484 47.4336 52.0913 47.4336H52.0255V47.719H58.308V46.5687H57.9612V46.6346L57.9568 46.6434ZM60.1256 44.176H60.4725V44.1102C60.4725 44.0663 60.4725 43.9345 60.7622 43.9345H63.8267L60.1169 47.3678L60.0949 47.3854V47.719H66.3072V46.6039H65.9604V46.6697C65.9604 46.7268 65.9604 46.7927 65.6926 46.7927H62.6281L66.2809 43.4121L66.3028 43.3945V43.0609H60.1256V44.176ZM75.0923 47.4424V47.7146H73.3406L72.5459 46.5951H69.7185L68.9283 47.7146H67.6112V47.4336H67.6726C67.8395 47.4161 67.9317 47.2975 68.037 47.1307L70.2585 43.7414C70.3419 43.6316 70.4342 43.5043 70.4342 43.4472C70.4342 43.377 70.2893 43.3506 70.2278 43.3419L70.1707 43.3331V43.0565H72.3088V43.3331L72.2518 43.3419C72.0805 43.3682 72.0586 43.4121 72.0586 43.4472C72.0586 43.5087 72.1069 43.5833 72.2122 43.7282L74.684 47.2317C74.7542 47.3327 74.864 47.3766 75.0396 47.4293L75.0879 47.4424H75.0923ZM72.0322 45.8268L71.1498 44.4131L70.1619 45.8312H72.0322V45.8268Z" fill="url(#paint7_linear_810_323)"/>
<defs>
<linearGradient id="paint0_linear_810_323" x1="45.9917" y1="0.710444" x2="45.9917" y2="54.2951" gradientUnits="userSpaceOnUse">
<stop offset="0.08" stop-color="#AC8A58"/>
<stop offset="0.4" stop-color="#FDDC85"/>
<stop offset="0.72" stop-color="#AC8F59"/>
<stop offset="1" stop-color="#FDDC85"/>
</linearGradient>
<linearGradient id="paint1_linear_810_323" x1="45.9554" y1="-18.4399" x2="45.9554" y2="58.1095" gradientUnits="userSpaceOnUse">
<stop offset="0.08" stop-color="#AC8A58"/>
<stop offset="0.4" stop-color="#FDDC85"/>
<stop offset="0.72" stop-color="#AC8F59"/>
<stop offset="1" stop-color="#FDDC85"/>
</linearGradient>
<linearGradient id="paint2_linear_810_323" x1="45.9856" y1="-18.3388" x2="45.9856" y2="58.2105" gradientUnits="userSpaceOnUse">
<stop offset="0.08" stop-color="#AC8A58"/>
<stop offset="0.4" stop-color="#FDDC85"/>
<stop offset="0.72" stop-color="#AC8F59"/>
<stop offset="1" stop-color="#FDDC85"/>
</linearGradient>
<linearGradient id="paint3_linear_810_323" x1="46.0345" y1="-1.33886" x2="46.0345" y2="55.529" gradientUnits="userSpaceOnUse">
<stop offset="0.08" stop-color="#AC8A58"/>
<stop offset="0.4" stop-color="#FDDC85"/>
<stop offset="0.72" stop-color="#AC8F59"/>
<stop offset="1" stop-color="#FDDC85"/>
</linearGradient>
<linearGradient id="paint4_linear_810_323" x1="45.9592" y1="-5.98507" x2="45.9592" y2="56.2696" gradientUnits="userSpaceOnUse">
<stop offset="0.08" stop-color="#AC8A58"/>
<stop offset="0.4" stop-color="#FDDC85"/>
<stop offset="0.72" stop-color="#AC8F59"/>
<stop offset="1" stop-color="#FDDC85"/>
</linearGradient>
<linearGradient id="paint5_linear_810_323" x1="-691.959" y1="24" x2="93.2335" y2="24" gradientUnits="userSpaceOnUse">
<stop offset="0.08" stop-color="#AC8A58"/>
<stop offset="0.4" stop-color="#FDDC85"/>
<stop offset="0.72" stop-color="#AC8F59"/>
<stop offset="1" stop-color="#FDDC85"/>
</linearGradient>
<linearGradient id="paint6_linear_810_323" x1="-2.05517" y1="24" x2="783.137" y2="24" gradientUnits="userSpaceOnUse">
<stop offset="0.08" stop-color="#AC8A58"/>
<stop offset="0.4" stop-color="#FDDC85"/>
<stop offset="0.72" stop-color="#AC8F59"/>
<stop offset="1" stop-color="#FDDC85"/>
</linearGradient>
<linearGradient id="paint7_linear_810_323" x1="16.4857" y1="45.4185" x2="75.0923" y2="45.4185" gradientUnits="userSpaceOnUse">
<stop offset="0.08" stop-color="#AC8A58"/>
<stop offset="0.4" stop-color="#FDDC85"/>
<stop offset="0.72" stop-color="#AC8F59"/>
<stop offset="1" stop-color="#FDDC85"/>
</linearGradient>
</defs>
</svg>
