<svg width="32" height="32" viewBox="0 0 32 32" fill="none" xmlns="http://www.w3.org/2000/svg">
<path d="M6.66732 10.6667H25.334C25.6876 10.6667 26.0267 10.5262 26.2768 10.2761C26.5268 10.0261 26.6673 9.68696 26.6673 9.33333C26.6673 8.97971 26.5268 8.64057 26.2768 8.39052C26.0267 8.14048 25.6876 8 25.334 8H6.66732C6.3137 8 5.97456 8.14048 5.72451 8.39052C5.47446 8.64057 5.33398 8.97971 5.33398 9.33333C5.33398 9.68696 5.47446 10.0261 5.72451 10.2761C5.97456 10.5262 6.3137 10.6667 6.66732 10.6667ZM25.334 14.6667H6.66732C6.3137 14.6667 5.97456 14.8071 5.72451 15.0572C5.47446 15.3072 5.33398 15.6464 5.33398 16C5.33398 16.3536 5.47446 16.6928 5.72451 16.9428C5.97456 17.1929 6.3137 17.3333 6.66732 17.3333H25.334C25.6876 17.3333 26.0267 17.1929 26.2768 16.9428C26.5268 16.6928 26.6673 16.3536 26.6673 16C26.6673 15.6464 26.5268 15.3072 26.2768 15.0572C26.0267 14.8071 25.6876 14.6667 25.334 14.6667ZM25.334 21.3333H6.66732C6.3137 21.3333 5.97456 21.4738 5.72451 21.7239C5.47446 21.9739 5.33398 22.313 5.33398 22.6667C5.33398 23.0203 5.47446 23.3594 5.72451 23.6095C5.97456 23.8595 6.3137 24 6.66732 24H25.334C25.6876 24 26.0267 23.8595 26.2768 23.6095C26.5268 23.3594 26.6673 23.0203 26.6673 22.6667C26.6673 22.313 26.5268 21.9739 26.2768 21.7239C26.0267 21.4738 25.6876 21.3333 25.334 21.3333Z" fill="current"/>
</svg>
